<svg width="1200" height="320" viewBox="0 0 1200 320" fill="none" xmlns="http://www.w3.org/2000/svg">
  <defs>
    <linearGradient id="g" x1="0" y1="0" x2="1" y2="1">
      <stop offset="0" stop-color="#6C2BD9"></stop>
      <stop offset="1" stop-color="#A78BFA"></stop>
    </linearGradient>
    <linearGradient id="grid" x1="0" y1="0" x2="0" y2="1">
      <stop offset="0" stop-color="#A78BFA" stop-opacity="0.20"></stop>
      <stop offset="1" stop-color="#6C2BD9" stop-opacity="0.10"></stop>
    </linearGradient>
  </defs>

  <rect width="1200" height="320" fill="#0B0716"></rect>
  <!-- subtle grid -->
  <g opacity="0.35">
    <path d="M0 40H1200M0 80H1200M0 120H1200M0 160H1200M0 200H1200M0 240H1200M0 280H1200" stroke="url(#grid)" stroke-width="1"></path>
    <path d="M60 0V320M120 0V320M180 0V320M240 0V320M300 0V320M360 0V320M420 0V320M480 0V320M540 0V320M600 0V320M660 0V320M720 0V320M780 0V320M840 0V320M900 0V320M960 0V320M1020 0V320M1080 0V320M1140 0V320" stroke="url(#grid)" stroke-width="1"></path>
  </g>

  <!-- fintech curve -->
  <path d="M0,240 C200,180 350,280 600,220 C900,150 1000,240 1200,180 L1200,320 L0,320 Z" fill="url(#g)" opacity="0.85"></path>

  <!-- title -->
  <text x="60" y="120" fill="#FFFFFF" font-family="Inter, ui-sans-serif, system-ui" font-size="44" font-weight="700">Thales Felippe</text>
  <text x="60" y="160" fill="#C7B8FF" font-family="Inter, ui-sans-serif, system-ui" font-size="18" font-weight="500">
    Software Engineer — React • Next.js • TypeScript • Django
  </text>
</svg>
